<mxfile host="Electron" modified="2024-02-17T08:35:52.651Z" agent="Mozilla/5.0 (Macintosh; Intel Mac OS X 10_15_7) AppleWebKit/537.36 (KHTML, like Gecko) draw.io/23.0.2 Chrome/120.0.6099.109 Electron/28.1.0 Safari/537.36" etag="CuBwujObYasoly94hXlR" version="23.0.2" type="device">
  <diagram name="페이지-1" id="yYTMZBhuuVreUjHxyWMv">
    <mxGraphModel dx="1114" dy="894" grid="1" gridSize="10" guides="1" tooltips="1" connect="1" arrows="1" fold="1" page="1" pageScale="1" pageWidth="827" pageHeight="1169" math="0" shadow="0">
      <root>
        <mxCell id="0" />
        <mxCell id="1" parent="0" />
        <mxCell id="W5ZJ2znCbs_fO8Hst_7i-1" style="edgeStyle=orthogonalEdgeStyle;rounded=0;orthogonalLoop=1;jettySize=auto;html=1;entryX=0.5;entryY=0;entryDx=0;entryDy=0;endArrow=block;endFill=1;" edge="1" parent="1" source="W5ZJ2znCbs_fO8Hst_7i-2" target="W5ZJ2znCbs_fO8Hst_7i-3">
          <mxGeometry relative="1" as="geometry" />
        </mxCell>
        <mxCell id="W5ZJ2znCbs_fO8Hst_7i-2" value="CsrfFilter" style="rounded=0;whiteSpace=wrap;html=1;fillColor=#f8cecc;strokeColor=#b85450;" vertex="1" parent="1">
          <mxGeometry x="300" y="200" width="160" height="40" as="geometry" />
        </mxCell>
        <mxCell id="W5ZJ2znCbs_fO8Hst_7i-3" value="CsrfTokenRepository" style="rounded=0;whiteSpace=wrap;html=1;fillColor=#f8cecc;strokeColor=#b85450;" vertex="1" parent="1">
          <mxGeometry x="300" y="300" width="160" height="40" as="geometry" />
        </mxCell>
        <mxCell id="W5ZJ2znCbs_fO8Hst_7i-6" value="이전 필터" style="rounded=0;whiteSpace=wrap;html=1;" vertex="1" parent="1">
          <mxGeometry x="100" y="200" width="160" height="40" as="geometry" />
        </mxCell>
        <mxCell id="W5ZJ2znCbs_fO8Hst_7i-7" value="다음 필터" style="rounded=0;whiteSpace=wrap;html=1;" vertex="1" parent="1">
          <mxGeometry x="500" y="200" width="160" height="40" as="geometry" />
        </mxCell>
        <mxCell id="W5ZJ2znCbs_fO8Hst_7i-8" value="" style="endArrow=block;html=1;rounded=0;endFill=1;" edge="1" parent="1">
          <mxGeometry width="50" height="50" relative="1" as="geometry">
            <mxPoint x="20" y="210" as="sourcePoint" />
            <mxPoint x="100" y="210" as="targetPoint" />
          </mxGeometry>
        </mxCell>
        <mxCell id="W5ZJ2znCbs_fO8Hst_7i-9" value="Request" style="edgeLabel;html=1;align=center;verticalAlign=middle;resizable=0;points=[];" vertex="1" connectable="0" parent="W5ZJ2znCbs_fO8Hst_7i-8">
          <mxGeometry x="-0.325" relative="1" as="geometry">
            <mxPoint x="9" y="-1" as="offset" />
          </mxGeometry>
        </mxCell>
        <mxCell id="W5ZJ2znCbs_fO8Hst_7i-10" value="" style="endArrow=block;html=1;rounded=0;endFill=1;" edge="1" parent="1">
          <mxGeometry width="50" height="50" relative="1" as="geometry">
            <mxPoint x="260" y="210" as="sourcePoint" />
            <mxPoint x="300" y="210" as="targetPoint" />
          </mxGeometry>
        </mxCell>
        <mxCell id="W5ZJ2znCbs_fO8Hst_7i-11" value="" style="endArrow=none;html=1;rounded=0;endFill=0;startArrow=block;startFill=1;" edge="1" parent="1">
          <mxGeometry width="50" height="50" relative="1" as="geometry">
            <mxPoint x="20" y="230" as="sourcePoint" />
            <mxPoint x="100" y="230" as="targetPoint" />
          </mxGeometry>
        </mxCell>
        <mxCell id="W5ZJ2znCbs_fO8Hst_7i-12" value="Response" style="edgeLabel;html=1;align=center;verticalAlign=middle;resizable=0;points=[];" vertex="1" connectable="0" parent="W5ZJ2znCbs_fO8Hst_7i-11">
          <mxGeometry x="-0.45" relative="1" as="geometry">
            <mxPoint x="17" y="-1" as="offset" />
          </mxGeometry>
        </mxCell>
        <mxCell id="W5ZJ2znCbs_fO8Hst_7i-13" value="" style="endArrow=block;html=1;rounded=0;endFill=1;" edge="1" parent="1">
          <mxGeometry width="50" height="50" relative="1" as="geometry">
            <mxPoint x="460" y="210" as="sourcePoint" />
            <mxPoint x="500" y="210" as="targetPoint" />
          </mxGeometry>
        </mxCell>
        <mxCell id="W5ZJ2znCbs_fO8Hst_7i-14" value="" style="endArrow=none;html=1;rounded=0;endFill=0;startArrow=block;startFill=1;" edge="1" parent="1">
          <mxGeometry width="50" height="50" relative="1" as="geometry">
            <mxPoint x="260" y="230" as="sourcePoint" />
            <mxPoint x="300" y="230" as="targetPoint" />
          </mxGeometry>
        </mxCell>
        <mxCell id="W5ZJ2znCbs_fO8Hst_7i-15" value="" style="endArrow=none;html=1;rounded=0;endFill=0;startArrow=block;startFill=1;" edge="1" parent="1">
          <mxGeometry width="50" height="50" relative="1" as="geometry">
            <mxPoint x="460" y="230" as="sourcePoint" />
            <mxPoint x="500" y="230" as="targetPoint" />
          </mxGeometry>
        </mxCell>
        <mxCell id="W5ZJ2znCbs_fO8Hst_7i-16" value="CsrfFilter 가 요청을 가로채서 &lt;br&gt;CSRF 보호 논리 적용" style="text;html=1;strokeColor=#82b366;fillColor=#d5e8d4;align=center;verticalAlign=middle;whiteSpace=wrap;rounded=0;shadow=0;glass=0;sketch=1;curveFitting=1;jiggle=2;" vertex="1" parent="1">
          <mxGeometry x="280" y="90" width="200" height="40" as="geometry" />
        </mxCell>
        <mxCell id="W5ZJ2znCbs_fO8Hst_7i-17" style="edgeStyle=orthogonalEdgeStyle;rounded=0;orthogonalLoop=1;jettySize=auto;html=1;fillColor=#d5e8d4;strokeColor=#82b366;curved=1;" edge="1" parent="1" source="W5ZJ2znCbs_fO8Hst_7i-16" target="W5ZJ2znCbs_fO8Hst_7i-2">
          <mxGeometry relative="1" as="geometry" />
        </mxCell>
        <mxCell id="W5ZJ2znCbs_fO8Hst_7i-20" style="edgeStyle=orthogonalEdgeStyle;rounded=0;orthogonalLoop=1;jettySize=auto;html=1;exitX=0.25;exitY=0;exitDx=0;exitDy=0;entryX=0;entryY=0.5;entryDx=0;entryDy=0;fillColor=#d5e8d4;strokeColor=#82b366;curved=1;" edge="1" parent="1" source="W5ZJ2znCbs_fO8Hst_7i-19" target="W5ZJ2znCbs_fO8Hst_7i-3">
          <mxGeometry relative="1" as="geometry" />
        </mxCell>
        <mxCell id="W5ZJ2znCbs_fO8Hst_7i-19" value="CsrfTokenRepository 가 CSRF 토큰을 관리" style="text;html=1;strokeColor=#82b366;fillColor=#d5e8d4;align=center;verticalAlign=middle;whiteSpace=wrap;rounded=0;shadow=0;glass=0;sketch=1;curveFitting=1;jiggle=2;" vertex="1" parent="1">
          <mxGeometry x="150" y="370" width="240" height="40" as="geometry" />
        </mxCell>
      </root>
    </mxGraphModel>
  </diagram>
</mxfile>
